<svg xmlns="http://www.w3.org/2000/svg" version="1.1" xmlns:xlink="http://www.w3.org/1999/xlink" xmlns:svgjs="http://svgjs.com/svgjs" width="500.000000pt" height="500.000000pt"><svg version="1.0" xmlns="http://www.w3.org/2000/svg" width="500.000000pt" height="500.000000pt" viewBox="0 0 500.000000 500.000000" preserveAspectRatio="xMidYMid meet">
<metadata>
Created by potrace 1.16, written by Peter Selinger 2001-2019
</metadata>
<g transform="translate(0.000000,500.000000) scale(0.100000,-0.100000)" fill="#000000" stroke="none">
<path d="M2410 4444 c-14 -2 -52 -12 -84 -20 -32 -9 -70 -18 -84 -20 -14 -3
-33 -9 -43 -14 -10 -6 -34 -11 -53 -12 -23 -2 -35 -7 -32 -15 3 -7 -13 -20
-37 -30 -91 -39 -256 -128 -327 -176 l-75 -50 -255 -1 c-140 -1 -358 0 -485 1
-126 1 -281 1 -342 0 -62 -1 -121 1 -130 5 -12 4 -7 7 16 7 19 1 32 4 28 7 -3
4 -59 3 -123 -1 -77 -5 -112 -10 -103 -16 9 -6 -34 -9 -118 -7 -72 2 -126 -1
-120 -5 7 -5 0 -6 -16 -3 -15 4 -27 2 -27 -2 0 -13 88 -22 225 -22 66 0 149
-5 185 -10 98 -14 269 -22 245 -11 -11 5 -42 10 -70 11 -27 1 -58 4 -67 8 -10
4 232 7 538 6 305 -1 557 -4 560 -7 3 -3 -4 -14 -17 -24 -13 -10 -41 -35 -64
-57 -65 -63 -72 -65 -145 -55 -67 10 -677 5 -688 -5 -3 -3 -1 -6 4 -7 5 0 17
-2 26 -4 9 -2 133 -6 275 -9 252 -6 433 -15 433 -23 0 -8 -73 -113 -79 -113
-3 0 -6 -13 -7 -28 0 -15 -7 -41 -15 -57 -13 -27 -20 -30 -67 -33 -32 -2 -52
1 -52 7 0 13 -228 15 -248 2 -15 -9 62 -21 136 -21 23 0 42 -4 42 -9 0 -18
-72 -24 -370 -31 l-305 -7 300 -1 c165 0 353 -1 419 -1 l118 -1 -6 -27 c-23
-100 -38 -247 -33 -309 4 -53 2 -66 -12 -74 -10 -6 -12 -13 -6 -17 14 -11 12
-37 -4 -56 -7 -9 -10 -21 -6 -27 3 -5 2 -10 -4 -10 -6 0 -8 -7 -5 -15 4 -8 10
-12 15 -9 13 8 11 -5 -3 -20 -7 -7 -21 -11 -31 -8 -16 4 -17 2 -5 -24 11 -26
44 -59 58 -59 3 0 16 -8 30 -18 20 -14 24 -26 25 -64 0 -30 -5 -48 -13 -51 -9
-3 -12 3 -10 15 2 11 -4 28 -12 37 -19 24 -25 60 -8 50 8 -4 10 -3 5 2 -5 5
-12 9 -15 10 -4 0 -20 6 -37 13 -16 6 -36 14 -43 16 -7 3 -16 13 -20 24 -13
35 -33 8 -39 -53 l-6 -57 -266 5 c-306 5 -707 21 -798 31 -53 6 -63 5 -63 -8
0 -18 23 -24 125 -31 242 -17 552 -21 731 -10 56 4 140 3 188 -1 l86 -7 1
-136 c1 -76 5 -148 9 -162 6 -17 7 -10 3 23 -8 74 24 52 42 -28 8 -34 32 -65
52 -65 7 0 13 -10 13 -22 0 -11 11 -36 25 -53 24 -32 24 -33 5 -50 -11 -10
-20 -24 -20 -32 0 -7 -7 -13 -16 -13 -9 0 -13 -5 -9 -12 8 -16 -24 20 -47 53
-10 13 -17 20 -15 14 1 -5 -2 -12 -8 -15 -5 -3 -11 7 -12 22 -1 15 -7 36 -13
45 -8 14 -9 11 -5 -17 3 -19 7 -45 8 -57 1 -13 4 -23 7 -23 3 0 5 -13 4 -28
-1 -22 6 -35 30 -54 17 -14 42 -28 54 -32 12 -4 20 -11 17 -16 -3 -4 5 -10 17
-13 13 -4 26 -1 30 6 4 7 8 -17 8 -52 0 -61 -1 -63 -22 -57 -13 4 -178 11
-368 16 -190 5 -365 11 -390 14 -25 3 -85 8 -133 10 -83 4 -87 3 -82 -15 8
-25 -20 -26 -34 -1 -9 16 -10 16 -16 0 -4 -11 -18 -18 -32 -18 -13 0 -21 -4
-18 -10 3 -5 -2 -10 -11 -10 -10 0 -14 -3 -11 -7 11 -10 -13 -32 -28 -27 -8 3
-24 -1 -37 -10 -22 -16 -22 -16 12 -17 19 0 42 -2 51 -4 21 -4 145 -8 191 -6
32 1 39 5 44 29 13 51 15 51 354 47 173 -2 363 -7 421 -11 l106 -6 10 -97 c7
-62 7 -98 1 -102 -5 -3 -3 -9 6 -12 9 -4 16 -13 16 -21 0 -7 11 -51 24 -96
l24 -82 -118 3 c-65 2 -116 1 -113 -3 2 -5 12 -8 21 -9 14 0 13 -2 -3 -9 -28
-12 -78 -12 -70 0 3 6 0 10 -7 10 -7 0 -24 3 -37 7 -17 4 -22 3 -17 -5 5 -9
-25 -12 -115 -12 -67 0 -119 3 -116 7 4 3 51 5 104 4 54 -1 95 0 92 4 -3 3
-104 8 -224 11 -120 3 -223 8 -228 11 -6 3 -7 1 -3 -5 5 -8 -5 -12 -32 -12
-41 0 -57 16 -46 45 4 10 0 15 -11 15 -9 0 -14 4 -11 9 9 14 -58 23 -87 12
-38 -15 -40 -27 -6 -41 26 -11 32 -11 40 1 6 9 9 10 9 2 0 -7 -9 -17 -20 -23
-11 -6 -18 -15 -15 -21 4 -5 -4 -9 -17 -8 -13 0 -17 3 -10 6 6 2 12 12 12 20
0 11 -8 14 -30 11 -17 -3 -58 1 -93 8 l-62 13 50 0 c75 -1 102 2 85 8 -32 12
-40 24 -25 39 7 8 20 15 27 15 7 1 -25 7 -72 13 -47 7 -88 11 -92 9 -9 -4 12
-55 27 -65 5 -4 -2 -8 -17 -8 -21 0 -28 5 -28 20 0 11 -4 20 -10 20 -15 0 -12
-30 5 -47 9 -8 22 -12 30 -9 8 3 15 1 15 -4 0 -15 -48 -12 -57 3 -4 8 -16 17
-27 20 -18 7 -18 8 0 28 16 17 16 22 4 29 -8 6 -28 10 -45 10 -27 -1 -28 -2
-13 -14 25 -18 22 -36 -4 -35 -13 0 -17 3 -10 6 17 7 15 23 -3 23 -12 0 -14
-17 -14 -91 0 -111 4 -122 30 -106 14 9 22 9 27 1 9 -13 172 -16 172 -3 0 10
101 6 118 -5 6 -3 13 -2 17 3 3 5 13 10 23 10 9 0 48 2 87 5 42 3 63 1 55 -4
-16 -10 -10 -20 15 -24 9 -1 20 -7 23 -12 4 -6 38 -7 82 -3 41 3 58 6 38 7
-42 2 -48 11 -20 28 13 8 51 9 132 3 63 -5 139 -10 167 -12 29 -3 58 -9 65
-14 20 -15 80 -25 72 -12 -4 8 1 9 17 4 18 -5 20 -4 9 4 -8 5 -27 7 -44 4 -19
-4 -27 -3 -22 5 9 14 117 14 135 -1 12 -10 13 -9 6 2 -7 12 8 13 99 8 71 -5
112 -12 121 -21 12 -12 11 -15 -11 -20 -15 -4 -22 -11 -18 -18 5 -8 1 -9 -12
-4 -10 5 -26 7 -34 6 -8 -1 -45 -3 -83 -3 -55 0 -70 3 -83 19 -12 15 -15 16
-10 2 4 -14 -3 -16 -47 -14 -29 2 -61 6 -71 11 -14 6 -17 5 -12 -3 4 -7 2 -12
-4 -12 -7 0 -10 7 -6 15 3 8 1 15 -3 15 -5 0 -11 -6 -14 -13 -6 -16 -190 -22
-217 -7 -13 7 -21 7 -26 -1 -3 -6 -15 -9 -25 -6 -11 3 -19 1 -19 -3 0 -5 -22
-7 -50 -5 -28 1 -50 1 -50 0 0 -2 8 -11 17 -20 15 -16 13 -17 -40 -14 -31 2
-57 3 -57 1 0 -1 10 -7 22 -12 23 -9 23 -9 -2 -10 -14 -1 -37 -3 -52 -5 -15
-2 -30 1 -33 6 -4 5 -2 9 2 9 5 0 13 8 19 18 11 16 8 18 -24 15 -21 -1 -40 3
-44 10 -5 8 -8 7 -8 -5 0 -9 7 -23 15 -32 19 -19 19 -36 0 -36 -8 0 -15 6 -15
14 0 8 -5 16 -11 18 -6 2 -12 14 -13 27 -1 21 -6 24 -41 25 -22 1 -46 -2 -52
-7 -9 -6 -13 -5 -13 2 0 15 -27 14 -32 0 -3 -9 -10 -9 -23 -2 -11 6 -51 13
-88 15 -62 4 -68 2 -64 -14 3 -11 0 -18 -9 -18 -8 0 -14 6 -13 13 3 28 -3 34
-33 33 -29 -1 -33 -4 -35 -33 -2 -18 2 -33 8 -33 5 0 7 -5 4 -10 -4 -6 -3 -10
2 -9 21 4 33 -2 33 -16 0 -9 -9 -15 -25 -15 -16 0 -25 -6 -25 -15 0 -17 10
-19 100 -16 61 2 63 1 40 -13 -18 -10 -30 -11 -44 -4 -15 8 -22 7 -31 -5 -9
-13 -13 -13 -30 -1 -10 8 -22 14 -27 14 -4 0 -8 -196 -8 -435 1 -376 3 -433
15 -428 8 3 15 9 15 14 0 5 6 9 14 9 8 0 29 17 47 37 18 21 37 37 42 35 5 -1
6 2 2 8 -3 5 -1 10 5 10 6 0 8 5 5 10 -3 6 1 10 10 10 18 0 59 24 95 56 81 71
291 194 331 194 8 0 23 6 34 14 11 7 44 21 73 30 31 11 50 22 46 28 -4 6 -2 8
3 5 13 -8 115 23 125 38 4 5 8 6 8 1 0 -5 7 -3 15 4 9 7 18 10 22 7 3 -4 40
11 81 33 41 22 84 40 94 40 11 0 16 4 13 10 -4 6 13 10 43 10 40 0 64 9 129
45 45 25 89 55 98 65 17 19 17 20 -1 20 -11 0 -25 -5 -32 -12 -9 -9 -12 -9
-12 0 0 10 -5 10 -21 2 -11 -6 -30 -9 -42 -7 -19 4 -18 4 5 6 15 0 29 5 32 10
3 4 -6 6 -19 3 -24 -4 -81 5 -73 13 2 2 35 7 73 10 39 4 75 11 80 15 6 5 17 4
25 -2 13 -8 13 -9 -1 -5 -9 3 -16 -1 -16 -8 0 -7 6 -11 14 -8 11 4 29 36 61
106 2 4 -3 7 -12 7 -9 0 -15 3 -14 8 3 8 -5 12 -24 12 -9 0 -8 -4 2 -11 11 -8
9 -9 -10 -3 -14 4 -34 7 -45 6 -11 -1 -22 4 -26 10 -5 8 -16 7 -40 -1 -18 -6
-29 -8 -26 -4 4 4 -7 13 -24 20 -29 12 -34 11 -52 -8 -17 -18 -27 -20 -65 -15
-25 3 -51 6 -59 6 -8 0 -11 4 -8 10 3 5 -2 10 -12 11 -10 0 -29 3 -43 5 -14 3
-47 8 -75 12 -50 6 -50 6 -15 13 33 6 31 6 -15 7 -27 1 -66 -2 -85 -6 -40 -9
-73 -5 -65 8 3 5 -7 8 -21 7 -15 -1 -29 3 -31 9 -2 7 23 11 77 11 44 0 80 -3
80 -7 0 -5 17 -6 37 -3 118 14 144 15 158 3 10 -8 29 -10 55 -6 23 4 40 2 40
-3 0 -5 -12 -12 -27 -14 -16 -2 -1 -4 32 -4 43 -1 52 1 30 6 l-30 7 27 7 c32
9 108 -2 108 -14 0 -5 7 -9 15 -9 8 0 15 6 15 13 0 8 3 9 8 1 4 -6 21 -14 37
-17 17 -3 40 -8 53 -12 19 -6 21 -4 16 11 -5 18 -5 18 6 2 14 -23 21 -23 48 2
21 20 21 20 36 -2 22 -31 20 -74 -4 -98 -11 -11 -15 -20 -10 -20 14 0 12 -20
-3 -50 -7 -14 -12 -35 -11 -47 1 -17 -4 -23 -19 -23 -20 0 -21 0 -1 -15 10 -8
14 -15 7 -15 -7 0 -10 -7 -7 -15 4 -8 2 -21 -4 -28 -12 -16 -21 -67 -11 -67 4
0 10 8 12 18 4 13 5 12 6 -5 0 -12 -3 -32 -8 -45 -5 -13 -12 -36 -16 -52 -5
-23 -8 -27 -16 -15 -13 21 -11 5 4 -23 7 -14 18 -23 25 -20 6 2 12 -2 12 -10
0 -23 -17 -41 -34 -35 -8 3 -18 2 -21 -3 -4 -6 6 -10 20 -10 22 0 25 -3 20
-20 -5 -14 -2 -20 9 -20 9 0 16 -5 16 -12 0 -6 3 -8 6 -5 12 11 44 -13 44 -33
0 -18 -2 -18 -42 -4 -55 19 -57 13 -2 -15 24 -13 42 -26 40 -28 -2 -3 -13 0
-24 6 -26 14 -65 14 -57 1 3 -5 15 -10 26 -10 20 0 31 -7 75 -47 24 -22 32
-53 14 -53 -5 0 -10 7 -10 15 0 8 -6 12 -14 9 -8 -3 -17 -1 -21 5 -3 6 -10 11
-15 11 -9 0 -7 -41 4 -58 4 -7 3 -12 -3 -12 -5 0 -12 6 -14 13 -4 9 -6 9 -6
-1 -1 -8 16 -20 38 -29 21 -8 43 -25 49 -37 9 -21 8 -22 -20 -18 -16 3 -32 11
-35 18 -3 8 -10 14 -15 14 -20 0 -78 32 -72 41 3 5 -2 6 -10 3 -12 -5 -13 -10
-5 -26 6 -11 17 -17 24 -14 8 3 15 2 17 -2 6 -13 66 -42 87 -42 12 0 21 -6 21
-13 0 -7 8 -22 19 -33 10 -11 22 -31 25 -45 l7 -24 -14 23 c-7 12 -16 19 -20
16 -4 -4 -7 4 -8 17 l-1 24 -7 -25 c-19 -61 -22 -82 -11 -75 5 3 10 1 10 -5 0
-6 5 -8 10 -5 6 4 10 3 9 -2 -4 -17 14 -64 28 -71 8 -5 16 -15 17 -23 2 -8 8
-27 15 -43 6 -16 11 -36 9 -44 -4 -21 -28 -27 -28 -8 0 9 4 16 9 16 19 0 -3
52 -30 71 -16 11 -29 16 -29 11 0 -5 11 -17 25 -26 14 -9 25 -25 25 -36 0 -22
-16 -27 -23 -7 -4 8 -6 7 -6 -4 -1 -17 34 -59 49 -59 6 0 10 -10 10 -22 0 -20
-1 -21 -20 -3 -11 10 -23 15 -28 11 -4 -4 6 -18 22 -31 16 -12 26 -27 23 -32
-3 -5 0 -10 8 -10 7 0 13 8 12 18 -1 10 -5 15 -10 12 -5 -3 -6 5 -2 18 5 13 8
37 7 53 l-1 29 24 -34 c14 -21 20 -38 14 -44 -5 -5 -9 -13 -9 -19 0 -5 6 -2
13 8 13 17 16 15 47 -28 l34 -47 214 1 c143 1 221 5 233 13 14 9 21 9 31 -1 9
-9 68 -12 215 -12 l202 0 15 28 c8 15 42 54 75 86 33 33 58 63 55 68 -5 7 1
16 32 51 6 7 9 18 6 26 -3 8 0 11 6 7 5 -3 9 2 8 11 0 9 9 22 21 28 13 7 20
15 15 20 -4 5 -1 5 5 1 30 -17 70 32 41 50 -7 4 -8 3 -4 -4 3 -6 -3 -16 -15
-22 -32 -18 -32 -7 1 30 17 19 30 44 30 57 0 13 4 23 8 23 4 0 8 9 9 21 2 18
0 19 -15 7 -15 -12 -16 -11 -3 4 7 10 17 16 21 13 4 -3 11 2 14 10 3 9 22 25
42 37 26 15 32 23 22 29 -15 10 -34 12 -25 3 6 -6 -34 -44 -47 -44 -12 0 18
62 33 67 9 4 27 15 40 25 30 23 51 23 51 1 0 -16 -2 -16 -11 -3 -9 13 -10 12
-5 -3 4 -12 -1 -21 -17 -27 -18 -7 -19 -9 -4 -9 10 -1 15 -5 12 -11 -3 -5 1
-10 9 -10 11 0 17 15 22 50 4 28 11 50 15 50 5 0 7 -11 3 -25 -7 -30 6 -32 31
-5 10 11 20 18 24 16 3 -2 6 11 6 30 0 34 -9 45 -18 22 -3 -8 -6 -6 -6 5 -1 9
9 27 21 39 13 13 17 23 10 26 -6 2 -8 10 -5 18 4 10 0 12 -11 8 -12 -5 -16 0
-16 20 0 16 6 26 14 26 11 0 13 11 9 45 -2 25 -1 45 4 45 4 0 7 30 6 67 -1 37
3 73 9 80 8 10 7 13 -3 13 -12 0 -12 2 0 9 7 5 10 14 6 21 -4 6 -1 23 6 37 10
18 10 29 2 42 -9 14 -7 20 8 29 10 7 29 12 41 13 13 0 17 3 11 6 -22 8 -14 21
31 52 43 30 44 30 65 12 12 -11 30 -17 40 -14 13 3 19 0 18 -12 -2 -19 86 -72
91 -55 2 5 10 10 17 10 18 0 47 -29 40 -40 -6 -10 61 -34 78 -27 18 7 31 3 33
-9 1 -6 -8 -9 -22 -6 -15 3 -24 0 -24 -8 0 -8 -8 -10 -22 -7 -46 12 33 -41 87
-58 28 -9 61 -22 72 -30 12 -8 30 -16 41 -18 11 -2 26 -8 34 -13 17 -14 211
-107 258 -125 19 -7 37 -15 40 -18 3 -4 16 -11 30 -18 108 -49 160 -71 160
-66 0 4 7 -2 15 -13 8 -10 15 -16 15 -12 0 11 184 -76 333 -156 37 -20 67 -33
67 -29 0 4 4 3 8 -3 7 -11 122 -71 185 -97 l37 -16 0 360 c0 352 0 359 -20
359 -11 0 -20 5 -20 11 0 6 9 9 20 6 19 -5 20 0 20 122 l0 126 -177 2 c-98 1
-200 4 -228 7 -27 3 -153 8 -280 11 -126 3 -268 10 -315 15 -47 5 -182 12
-300 16 -118 3 -216 7 -218 9 -1 1 13 24 31 51 19 27 47 84 63 127 18 49 34
77 44 77 12 0 12 2 1 9 -10 7 -11 16 -3 42 6 19 14 74 18 122 l7 89 161 -9
c179 -9 163 -9 478 2 150 5 278 4 375 -3 273 -21 343 -24 343 -13 0 5 -8 12
-17 14 -17 4 -17 5 0 6 12 1 17 10 17 31 0 17 -3 31 -7 31 -18 3 -62 6 -128 9
-81 4 -95 7 -95 25 0 9 -18 12 -65 10 -36 -1 -68 2 -71 7 -3 4 -21 8 -40 8
-20 0 -34 5 -34 13 0 8 -4 7 -10 -3 -8 -13 -10 -12 -10 3 0 9 -6 17 -14 17
-18 0 -29 -42 -13 -52 15 -9 17 -9 -128 -10 -148 -1 -225 3 -225 12 0 4 -26
11 -57 15 -32 3 -67 8 -78 9 -11 2 -14 1 -7 -1 29 -10 7 -21 -50 -24 -104 -6
-324 5 -318 16 3 6 50 9 118 7 61 -1 112 2 112 7 0 11 -55 22 -75 15 -8 -4
-22 -1 -30 6 -8 6 -29 11 -47 10 -72 -4 -86 -1 -81 18 4 17 15 19 121 16 79
-2 106 0 82 6 -78 18 -143 30 -170 30 l-28 0 -4 93 -5 92 33 39 c41 48 104
168 139 266 38 108 49 122 93 119 20 -1 66 -1 102 0 l65 3 -94 14 c-52 7 -96
16 -99 19 -3 2 11 11 30 19 32 14 36 20 47 75 7 33 16 63 20 65 9 6 547 16
839 16 100 0 182 3 182 8 0 4 -199 6 -442 4 -519 -3 -596 -5 -622 -17 -16 -7
-18 -5 -13 8 7 18 -12 19 -25 2 -5 -6 -11 -5 -17 4 -5 8 -16 11 -25 8 -8 -3
-18 -1 -22 4 -3 6 -15 9 -25 6 -10 -3 -22 -1 -25 5 -3 5 -12 7 -20 4 -7 -3
-16 0 -20 5 -3 6 -15 9 -25 6 -10 -3 -22 -1 -25 4 -3 6 -14 7 -24 4 -10 -3
-21 -1 -25 5 -4 7 -18 9 -32 6 -23 -6 -23 -6 -8 18 15 23 20 134 12 270 l-2
30 70 0 c107 1 1181 -16 1253 -19 l63 -4 -3 27 c-3 24 -8 28 -53 34 -59 7
-476 3 -625 -7 -62 -4 -139 -3 -190 4 -105 13 -327 22 -285 11 17 -4 64 -9
105 -10 l75 -3 -80 -8 c-44 -5 -139 -6 -212 -3 -123 6 -132 8 -137 28 -13 46
-19 45 235 46 133 0 245 3 250 6 5 3 9 2 9 -3 0 -4 39 -9 86 -10 48 0 89 -5
93 -11 3 -5 59 -12 123 -14 89 -4 122 -2 135 8 16 12 10 14 -42 15 l-60 2 65
8 c209 24 360 23 344 -3 -4 -6 1 -6 14 1 11 6 50 11 86 11 59 0 66 2 66 20 0
16 -7 20 -37 21 -22 1 -29 3 -18 6 30 7 42 23 19 25 -10 1 -174 2 -364 3 -190
0 -403 4 -475 7 -71 3 -114 4 -95 2 19 -2 67 -8 105 -14 39 -5 198 -12 354
-15 157 -3 287 -8 290 -10 2 -3 -31 -5 -75 -6 -43 0 -144 -3 -224 -5 -213 -7
-758 -6 -812 1 -28 4 -55 2 -67 -5 -19 -10 -23 -7 -41 35 -42 97 -45 92 67
100 235 17 254 23 64 22 l-184 -1 -44 68 c-24 37 -41 71 -38 76 3 5 -3 11 -14
15 -10 3 -55 43 -99 88 -44 45 -90 90 -103 99 -98 72 -196 141 -209 146 -24 9
-124 74 -132 85 -3 6 -28 19 -55 29 -119 48 -149 59 -168 64 -29 7 -206 13
-235 8z m-92 -208 c13 2 21 0 18 -5 -10 -15 18 -19 32 -5 7 7 21 11 32 9 11
-2 20 0 20 5 0 12 40 7 67 -8 12 -7 24 -8 27 -3 3 4 24 5 46 1 29 -5 43 -4 52
7 9 11 13 11 19 2 10 -17 37 -20 82 -8 29 8 42 7 54 -3 9 -7 35 -13 59 -14 27
-1 53 -9 70 -23 15 -11 39 -20 53 -19 26 2 91 -29 91 -44 0 -4 9 -8 19 -8 11
0 23 -4 26 -10 3 -5 21 -10 38 -10 33 -1 72 -22 60 -33 -3 -4 -1 -7 5 -7 7 0
20 -7 30 -15 138 -118 208 -205 219 -270 3 -19 12 -40 19 -46 8 -6 14 -18 14
-25 0 -8 4 -14 9 -14 5 0 14 -23 21 -50 7 -28 15 -52 19 -54 4 -3 6 -17 5 -33
0 -15 -2 -45 -2 -65 -2 -32 -6 -38 -24 -38 -12 0 -18 -3 -15 -7 4 -3 1 -13 -6
-21 -10 -13 -7 -14 20 -10 25 3 30 1 23 -8 -6 -6 -7 -20 -3 -29 4 -13 3 -16
-5 -11 -7 4 -12 13 -12 19 0 16 -54 41 -58 27 -2 -6 -9 -7 -15 -4 -9 5 -9 4 0
-6 6 -7 9 -18 6 -26 -3 -7 0 -29 7 -49 10 -31 13 -33 26 -20 20 20 20 20 19
-17 0 -18 3 -40 7 -49 4 -10 2 -16 -7 -16 -8 0 -12 3 -10 7 2 3 -10 12 -26 19
-17 7 -28 16 -25 19 9 8 -25 42 -41 42 -7 0 -13 -3 -13 -7 0 -5 -11 -8 -24 -8
-13 0 -22 3 -19 8 2 4 -1 7 -6 7 -6 0 -12 -4 -12 -10 -1 -5 -2 -16 -3 -22 -1
-17 -35 -23 -49 -9 -13 13 -51 15 -42 2 3 -6 -6 -6 -25 -1 -17 5 -38 6 -47 3
-11 -5 -14 -3 -8 6 6 10 3 11 -15 1 -12 -7 -20 -8 -16 -2 3 5 -1 12 -9 16 -8
3 -19 -3 -24 -12 -7 -12 -10 -13 -11 -3 0 10 -6 10 -26 -4 -15 -9 -23 -11 -19
-4 6 8 4 10 -4 5 -7 -5 -10 -14 -8 -20 3 -7 -1 -13 -8 -13 -10 0 -11 7 -3 26
l9 26 -31 -30 c-24 -23 -30 -25 -24 -10 7 20 7 20 -14 1 -12 -10 -19 -23 -16
-27 8 -13 -10 -11 -25 4 -11 10 -13 9 -8 -5 3 -9 -1 -22 -10 -30 -14 -11 -16
-11 -10 4 4 12 2 15 -9 11 -8 -3 -13 -12 -10 -19 3 -8 1 -14 -3 -14 -5 0 -12
6 -14 13 -3 7 -6 4 -6 -7 -1 -15 -4 -16 -16 -6 -8 7 -15 8 -15 2 0 -14 -38
-22 -44 -8 -2 6 -5 1 -5 -10 -1 -28 -18 -34 -72 -26 -24 3 -58 6 -76 6 -18 0
-30 3 -27 7 2 4 0 10 -6 14 -5 3 -10 1 -10 -4 0 -6 -5 -11 -11 -11 -5 0 -8 4
-4 9 8 14 -31 33 -58 29 -12 -2 -27 4 -34 12 -9 10 -12 11 -13 3 0 -7 -4 -13
-10 -13 -5 0 -7 8 -3 18 5 14 3 15 -8 5 -18 -18 -26 -16 -32 6 -2 10 -14 24
-26 30 -18 10 -20 9 -15 -6 3 -11 0 -10 -7 4 -6 11 -23 23 -38 26 -14 3 -36 8
-48 12 -15 5 -23 3 -23 -4 0 -6 8 -11 18 -12 11 0 12 -2 4 -6 -7 -3 -22 3 -32
12 -11 10 -28 15 -40 12 -11 -3 -23 0 -27 5 -3 6 -1 8 5 4 6 -3 13 -2 17 4 3
5 1 10 -5 10 -6 0 -8 5 -4 13 6 9 4 9 -7 1 -8 -6 -30 -12 -49 -12 -55 -1 -81
-10 -98 -33 -14 -20 -21 -21 -101 -16 -47 4 -99 7 -116 8 -16 1 -41 1 -55 0
-23 -2 -24 -3 -5 -12 13 -6 -11 -7 -70 -4 -66 4 -86 3 -75 -5 12 -8 7 -10 -19
-8 -30 3 -35 7 -35 30 -1 14 2 24 6 22 4 -3 8 -12 8 -20 0 -8 5 -14 11 -14 7
0 8 11 4 30 -4 20 -3 30 5 30 7 0 5 6 -4 16 -9 8 -16 30 -16 47 0 24 -3 28
-10 17 -8 -12 -10 -11 -10 7 0 12 5 25 11 29 8 5 8 9 -1 14 -9 6 -9 12 0 30
12 22 11 22 -16 16 l-29 -7 23 16 c12 9 20 21 17 26 -4 5 -1 9 4 9 6 0 11 5
11 10 0 6 -7 10 -15 10 -8 0 -15 -9 -15 -20 0 -20 -19 -29 -21 -10 -5 29 -2
35 21 42 19 6 16 7 -13 3 -22 -2 -35 0 -32 6 4 5 12 9 20 9 17 0 45 27 45 43
0 9 -2 9 -8 0 -5 -8 -13 -9 -22 -3 -9 6 -10 10 -3 10 6 0 9 9 6 21 -4 13 -8
17 -13 9 -5 -8 -9 -6 -14 6 -3 9 -4 19 -1 22 3 3 5 1 5 -4 0 -5 11 -10 25 -10
28 -2 31 5 13 26 -7 8 -9 12 -4 8 14 -11 37 19 42 54 2 18 10 36 19 41 8 4 13
13 10 18 -4 5 -11 7 -16 4 -5 -4 -9 -2 -9 2 0 5 9 14 20 21 11 7 20 21 20 32
0 24 38 70 57 70 8 0 16 7 19 15 4 8 12 15 18 15 7 0 22 9 34 20 12 11 25 20
31 20 5 0 11 7 15 15 3 8 11 14 18 13 7 -2 12 2 11 9 -1 6 8 10 23 8 13 -1 27
2 31 8 3 6 1 7 -5 3 -7 -4 -12 -2 -12 3 0 6 7 11 15 11 27 0 30 1 51 21 17 16
23 17 27 7 5 -11 7 -11 15 0 5 7 21 20 36 27 22 12 31 12 47 2 16 -10 22 -9
32 3 7 8 21 17 32 18 11 2 34 10 50 18 28 13 49 19 94 28 8 1 17 8 19 14 2 8
10 9 20 3 9 -5 27 -7 40 -5z m-360 -1038 c-2 -7 8 -14 22 -17 23 -3 24 -4 5
-12 -19 -7 -19 -8 3 -8 12 -1 22 4 22 10 0 5 5 7 10 4 6 -4 8 -10 5 -15 -3 -5
4 -11 15 -15 11 -4 18 -10 15 -14 -2 -5 6 -6 19 -4 14 3 32 0 43 -7 16 -10 16
-11 1 -6 -10 3 -18 1 -18 -4 0 -5 12 -13 26 -16 17 -4 22 -9 14 -14 -9 -6 -7
-11 6 -19 16 -9 13 -10 -16 -8 -19 2 -41 -3 -48 -10 -7 -7 -20 -9 -28 -6 -12
4 -13 8 -3 14 7 4 17 5 23 2 5 -4 6 -1 2 6 -9 14 -65 6 -81 -12 -5 -7 -26 -13
-45 -15 -19 -1 -37 -6 -40 -11 -3 -4 -14 -7 -25 -5 -61 11 -89 13 -77 5 11 -7
10 -10 -3 -15 -24 -9 -37 -7 -30 4 3 6 2 10 -4 10 -5 0 -12 -6 -15 -12 -2 -7
-4 -2 -3 12 2 20 -3 25 -20 24 -12 0 -20 3 -17 8 3 4 11 8 19 8 14 0 27 24 18
34 -4 3 -15 6 -26 6 -15 0 -17 3 -8 14 9 10 7 13 -10 12 -14 -1 -28 -13 -38
-33 -9 -17 -23 -34 -31 -36 -18 -5 -44 39 -29 49 16 10 10 24 -8 18 -12 -4 -9
1 7 15 38 31 90 47 101 30 7 -11 9 -10 9 4 0 9 4 17 10 17 5 0 7 -6 4 -13 -3
-8 2 -14 10 -14 8 0 13 4 10 8 -8 14 20 24 86 30 110 10 120 10 118 -3z m1396
-75 c4 -5 35 -7 69 -6 34 0 50 -1 35 -4 -29 -5 -36 -17 -16 -29 7 -5 8 -3 3 6
-5 9 -4 11 4 6 9 -6 9 -11 -1 -23 -11 -14 -10 -15 10 -9 16 5 22 4 20 -6 -2
-7 3 -12 11 -10 11 2 12 0 3 -11 -8 -9 -23 -12 -39 -9 -23 4 -25 2 -20 -17 l5
-21 -25 20 c-17 13 -35 18 -54 15 -16 -3 -29 -1 -29 4 0 5 -12 8 -27 6 -16 -1
-27 -8 -25 -14 1 -6 -5 -11 -13 -11 -8 0 -14 3 -14 8 3 18 -3 21 -27 12 -21
-8 -25 -8 -21 4 7 17 -27 28 -41 14 -6 -6 -16 -7 -26 -1 -13 7 -9 12 21 22 46
16 65 30 57 42 -3 5 0 9 5 9 6 0 11 -4 11 -10 0 -5 7 -10 15 -10 8 0 15 7 15
15 0 11 11 15 43 15 24 0 47 -3 51 -7z m347 -64 c57 -25 80 -47 46 -44 -12 1
-63 -13 -114 -31 -50 -18 -94 -30 -97 -27 -3 4 -6 17 -6 30 0 14 -5 34 -11 45
-8 15 -8 19 0 14 7 -5 11 5 11 28 l0 34 61 -14 c33 -8 83 -24 110 -35z m-1180
-137 c-6 -38 -24 -101 -40 -140 -15 -39 -26 -74 -23 -77 3 -3 0 -5 -6 -5 -7 0
-12 -7 -12 -15 0 -8 -5 -15 -11 -15 -5 0 -8 -4 -4 -9 3 -6 -3 -14 -12 -20 -10
-6 -14 -11 -8 -11 5 0 -9 -18 -30 -41 -41 -41 -100 -73 -117 -63 -5 3 -14 1
-21 -4 -39 -32 -487 -5 -487 30 0 5 -4 7 -8 4 -5 -3 -22 3 -39 14 -32 19 -87
118 -98 175 -3 17 -2 23 1 15 4 -8 13 -19 21 -23 7 -5 11 -12 8 -16 -2 -5 3
-15 12 -22 15 -12 16 -12 10 4 -6 16 4 21 49 20 18 0 12 26 -8 33 -10 3 -18 9
-18 13 0 5 15 1 34 -8 18 -9 32 -19 29 -23 -2 -5 1 -8 6 -8 6 0 11 5 11 11 0
8 5 8 15 -1 8 -7 22 -10 30 -6 26 10 16 -11 -12 -25 -16 -8 -29 -20 -31 -27
-2 -10 2 -10 18 -2 11 6 20 14 20 19 0 5 11 6 25 3 30 -5 34 -23 4 -19 -12 1
-24 -4 -26 -10 -3 -7 0 -13 7 -13 6 0 8 5 5 10 -7 12 2 12 30 0 11 -5 15 -9 8
-9 -7 -1 -10 -8 -7 -16 7 -18 84 -21 84 -4 0 8 4 8 14 0 16 -14 32 2 20 20 -5
8 -2 9 12 1 11 -6 25 -7 35 -2 8 5 37 10 62 11 26 2 47 6 47 11 0 4 3 7 8 7
20 -3 42 2 42 11 0 5 -8 7 -17 4 -11 -3 -10 0 4 8 12 7 22 17 21 23 0 5 17 17
39 27 21 10 29 16 18 13 -11 -2 -27 0 -35 6 -12 8 -9 9 9 4 16 -5 21 -4 17 4
-4 6 1 14 10 18 10 4 19 2 22 -5 2 -7 9 -9 15 -5 7 4 6 -1 -2 -11 -10 -12 -11
-20 -4 -27 8 -8 14 -5 22 9 6 10 7 22 4 26 -3 3 -1 6 6 6 7 0 9 5 6 10 -3 6 0
10 7 10 8 1 6 6 -6 15 -19 15 -19 15 1 15 11 0 37 7 56 15 41 17 82 21 57 6
-8 -6 -18 -7 -24 -4 -5 3 -6 1 -2 -5 3 -5 0 -13 -6 -15 -8 -3 -6 -6 5 -6 9 -1
17 3 17 8 0 5 9 11 20 14 25 6 26 -8 3 -23 -16 -9 -15 -10 5 -5 13 4 22 2 22
-4 0 -6 -4 -11 -10 -11 -5 0 -9 -3 -8 -7 3 -15 -14 -63 -23 -63 -5 0 -9 -11
-9 -24 0 -13 -16 -48 -35 -77 -49 -72 -52 -79 -17 -39 75 85 129 212 159 369
2 13 6 21 9 18 3 -3 1 -37 -5 -75z m1264 -44 c-10 -60 -53 -192 -83 -258 -14
-30 -26 -58 -26 -62 -2 -14 -48 -69 -53 -64 -3 3 -12 -2 -18 -11 -11 -15 -15
-15 -29 -4 -14 12 -16 12 -10 -3 5 -12 2 -15 -10 -10 -9 3 -16 1 -16 -5 0 -7
-9 -9 -25 -5 -14 3 -25 2 -25 -3 0 -5 -56 -8 -127 -6 -164 3 -155 2 -243 20
-112 22 -142 47 -196 158 -36 73 -41 95 -23 95 5 0 8 -3 6 -7 -3 -5 1 -13 8
-20 10 -10 14 -9 19 3 3 8 2 13 -2 10 -5 -3 -9 1 -9 9 0 13 3 12 19 -1 17 -16
18 -15 15 27 -1 35 1 43 13 40 8 -2 21 -4 28 -4 14 0 16 -13 3 -22 -5 -3 -17
2 -25 11 -9 8 -16 11 -16 6 0 -5 7 -15 15 -22 8 -7 12 -16 9 -21 -3 -5 4 -9
15 -9 24 0 25 -3 10 -33 -7 -12 -9 -19 -5 -16 4 4 27 1 51 -6 24 -8 46 -11 49
-8 3 4 6 1 6 -4 0 -6 -6 -13 -12 -16 -7 -2 4 -8 25 -12 20 -4 37 -11 37 -17 0
-5 -4 -7 -9 -3 -5 3 -12 2 -15 -3 -2 -4 9 -9 25 -10 19 -2 28 2 24 8 -3 5 -1
10 4 10 6 0 11 -7 11 -15 0 -9 8 -18 18 -21 9 -4 32 -13 51 -21 25 -11 35 -12
41 -3 10 17 21 -15 13 -37 -7 -17 -6 -17 11 0 10 9 22 14 28 11 7 -4 8 -2 4 5
-4 6 -12 8 -18 5 -6 -4 -8 -2 -5 3 4 6 21 9 39 8 39 -3 55 4 37 16 -11 7 -10
9 3 9 9 0 20 -5 24 -11 4 -8 9 -7 15 2 7 11 9 11 9 -2 0 -9 7 -19 15 -23 8 -3
15 -10 15 -16 0 -6 -4 -9 -9 -5 -5 3 -12 -4 -16 -15 -3 -11 -14 -20 -23 -20
-15 1 -14 3 2 15 11 8 14 15 7 15 -7 0 -10 4 -7 9 3 5 -1 11 -8 14 -10 4 -13
0 -11 -14 3 -12 0 -17 -7 -13 -6 4 -17 -1 -25 -11 -7 -11 -13 -13 -13 -7 0 7
-7 12 -15 12 -9 0 -12 -6 -9 -15 4 -8 17 -15 30 -15 18 0 22 4 18 18 -5 15 -4
16 8 1 17 -20 58 -34 58 -20 0 6 11 11 25 11 14 0 25 5 25 10 0 6 3 9 8 8 4
-1 20 2 36 7 22 6 25 10 13 16 -13 7 -33 71 -29 90 1 4 -4 40 -11 80 -7 41
-11 93 -9 117 4 39 6 42 32 42 33 0 193 50 198 62 2 4 8 8 14 8 6 0 7 -16 3
-42z m-1160 -19 c-4 -6 3 -5 14 3 18 11 23 11 31 -2 5 -8 10 -11 10 -7 0 10
30 -18 30 -28 0 -3 11 -18 25 -32 13 -15 47 -73 75 -130 42 -85 60 -110 102
-144 28 -22 67 -47 87 -55 80 -34 279 -84 391 -100 64 -9 77 -12 100 -25 14
-7 27 -14 30 -14 3 0 13 -5 23 -11 18 -10 18 -11 1 -29 -13 -13 -14 -17 -4
-13 9 3 20 -5 27 -20 15 -29 16 -42 3 -42 -5 0 -6 8 -3 18 6 14 4 15 -9 4 -9
-7 -14 -22 -11 -40 3 -20 2 -23 -6 -12 -5 8 -7 18 -5 22 3 4 -2 8 -10 8 -9 0
-16 -9 -16 -20 0 -11 -6 -19 -12 -17 -7 1 -12 -5 -10 -13 3 -12 1 -12 -9 -3
-10 10 -16 9 -30 -3 -17 -15 -20 -15 -42 3 -20 15 -22 21 -11 31 8 7 14 18 14
24 0 7 -6 4 -13 -5 -16 -22 -69 -34 -61 -13 3 9 -4 16 -22 20 -20 5 -24 10
-15 15 11 7 11 10 0 17 -8 5 -23 10 -34 11 -23 4 -46 23 -27 23 10 0 10 3 0
13 -7 8 -21 12 -31 9 -12 -3 -23 2 -29 12 -5 9 -14 16 -20 16 -6 0 -19 9 -28
20 -23 26 -54 17 -46 -14 4 -11 9 -34 13 -51 6 -28 5 -29 -11 -16 -11 9 -20
11 -24 5 -6 -8 -26 -11 -34 -4 -7 4 -48 11 -107 15 -35 3 -69 9 -75 15 -7 5
-18 5 -26 0 -9 -5 -19 -5 -27 2 -9 7 -13 7 -13 -1 0 -6 -11 -11 -25 -11 -14 0
-25 -5 -25 -11 0 -12 -110 -6 -131 7 -7 4 -10 3 -6 -3 4 -7 -7 -10 -30 -9 -20
1 -38 7 -40 13 -3 8 -14 8 -34 3 -16 -5 -29 -5 -29 -1 0 9 -158 5 -183 -4 -9
-4 -24 -2 -32 5 -13 11 -14 10 -10 -1 4 -10 -4 -15 -25 -16 -16 -1 -30 1 -31
5 0 4 -2 17 -5 30 -2 13 1 33 7 45 17 34 61 77 78 78 12 0 10 3 -4 9 -11 5
-14 9 -7 9 7 1 11 5 8 10 -3 4 14 16 37 26 23 10 56 24 74 31 17 8 34 14 38
14 10 0 62 60 77 90 25 48 90 140 99 140 6 0 8 4 4 9 -3 6 3 14 12 20 17 10
17 10 -2 11 -15 0 -17 2 -6 9 7 5 10 14 7 20 -4 6 -2 11 3 11 6 0 11 7 11 15
0 8 5 15 11 15 5 0 7 -5 4 -11z m-1051 -187 c9 -24 14 -48 10 -53 -3 -5 -2 -8
3 -7 5 2 24 -14 41 -34 21 -23 51 -43 82 -53 64 -21 208 -45 285 -46 l60 -1
-80 -15 c-75 -14 -150 -42 -140 -52 8 -7 143 0 177 9 36 11 81 3 75 -14 -3 -6
-10 -10 -16 -8 -7 1 -9 -2 -6 -8 4 -7 -2 -14 -14 -17 -12 -3 -21 -11 -21 -19
0 -9 -6 -11 -17 -7 -16 6 -16 5 -4 -10 12 -15 11 -17 -9 -17 -19 0 -21 -4 -16
-27 6 -26 5 -27 -6 -7 -10 17 -18 20 -35 13 -13 -5 -23 -11 -23 -14 0 -4 6 -3
13 1 6 4 4 -2 -6 -13 -14 -16 -15 -22 -5 -26 7 -2 1 -4 -13 -3 -19 1 -25 5
-21 16 4 12 1 11 -15 -3 -11 -9 -22 -15 -25 -12 -3 3 -11 -1 -18 -10 -10 -12
-10 -15 4 -15 10 0 14 -5 11 -10 -4 -6 -12 -10 -18 -9 -7 1 -21 -2 -31 -6 -13
-6 -23 -3 -30 6 -14 18 -46 13 -46 -8 0 -11 -5 -13 -17 -8 -10 4 -30 8 -45 10
-15 1 -34 7 -42 14 -9 7 -23 11 -31 7 -10 -3 -18 1 -22 12 -9 22 -33 47 -33
33 0 -6 -7 -11 -16 -11 -13 0 -15 9 -11 55 4 45 2 53 -9 44 -9 -7 -18 -7 -33
1 -28 14 -26 18 4 12 20 -3 25 0 25 17 0 11 -5 21 -11 21 -6 0 -9 6 -6 14 3 7
1 18 -5 24 -7 7 -6 17 1 31 7 12 8 21 4 21 -4 0 -7 21 -7 47 2 52 -13 84 -27
61 -7 -10 -9 -9 -9 3 0 8 7 24 15 35 10 14 14 15 15 5 0 -11 4 -10 14 4 12 17
13 17 20 -9 8 -31 22 -27 28 9 3 16 -1 30 -11 37 -14 11 -14 11 -4 -2 6 -9 9
-21 5 -27 -4 -7 -14 -2 -26 15 -11 14 -14 22 -8 18 7 -4 12 -2 12 3 0 6 6 11
14 11 7 0 19 7 26 15 16 19 22 13 44 -43z m550 -523 c-3 -5 -10 -9 -15 -9 -6
0 -7 5 -3 12 5 7 3 8 -6 3 -10 -6 -9 -11 6 -22 10 -8 18 -19 17 -24 -4 -13 31
-11 46 4 11 10 12 9 6 -1 -6 -11 -3 -12 13 -3 11 6 28 8 36 5 9 -3 16 -1 16 5
0 6 -4 11 -10 11 -5 0 -10 5 -10 11 0 8 6 7 17 -2 9 -8 23 -14 32 -15 40 -2
91 -17 91 -28 0 -6 4 -4 10 4 8 13 10 13 15 0 3 -8 16 -16 30 -16 14 -1 33 -5
43 -9 9 -5 22 -9 27 -11 6 -1 30 -7 55 -14 48 -12 54 -13 85 -8 12 2 19 -2 17
-10 -1 -8 2 -11 8 -7 6 3 8 11 4 16 -4 7 6 9 25 6 19 -3 37 0 44 7 9 11 14 10
25 -3 7 -9 11 -10 7 -3 -4 8 2 12 19 12 14 0 26 4 26 9 0 16 83 38 118 30 19
-4 32 -2 32 3 0 6 7 8 15 4 8 -3 19 2 24 12 10 16 10 16 11 0 0 -10 5 -18 11
-18 5 0 7 -4 4 -10 -3 -5 -3 -10 2 -11 4 0 16 -2 26 -4 14 -3 16 1 11 17 -4
15 -2 19 7 16 8 -3 13 -13 12 -23 -1 -12 2 -14 10 -6 8 8 4 18 -12 35 l-24 25
27 -5 c15 -2 25 -1 23 3 -3 4 10 9 29 10 19 1 34 -2 34 -6 0 -5 -12 -7 -26 -5
-14 1 -23 -1 -19 -4 3 -4 14 -7 23 -7 10 0 18 -10 21 -25 1 -14 8 -28 14 -32
18 -11 16 -34 -4 -34 -13 0 -15 3 -7 13 7 9 7 13 0 13 -16 0 -19 -23 -7 -57 8
-26 14 -30 23 -21 6 6 14 9 18 5 3 -3 -8 -15 -26 -25 -30 -18 -31 -21 -13 -31
16 -11 16 -11 -4 -6 -12 3 -24 1 -28 -5 -3 -6 -12 -7 -18 -3 -7 4 -5 -1 2 -11
14 -16 13 -17 -15 -13 -22 3 -33 -1 -47 -19 -17 -23 -17 -24 1 -24 11 0 27
-10 36 -22 9 -13 14 -17 11 -10 -3 6 -1 12 5 12 19 0 5 -23 -16 -27 -31 -5
-82 7 -99 23 -8 9 -15 11 -15 6 0 -4 -15 -7 -32 -5 -25 3 -30 2 -18 -6 8 -6
10 -11 4 -11 -6 0 -23 9 -37 20 -14 11 -32 17 -41 14 -18 -7 -22 -24 -6 -24 6
0 10 6 10 13 0 9 2 9 9 -1 4 -8 11 -13 15 -13 3 1 6 -1 6 -4 0 -3 0 -9 0 -14
0 -13 -25 -8 -44 8 -10 9 -16 9 -16 3 0 -6 -7 -9 -15 -6 -8 4 -15 1 -15 -5 0
-6 -5 -11 -11 -11 -5 0 -7 5 -4 10 4 6 -12 10 -39 10 -25 0 -46 4 -46 9 0 5
-15 5 -32 2 -21 -5 -46 -2 -68 7 -19 8 -58 15 -87 16 -29 1 -55 5 -59 9 -13
13 -47 7 -67 -10 -14 -13 -21 -14 -24 -6 -2 7 -10 10 -16 8 -22 -9 -112 -15
-187 -15 -77 1 -108 13 -80 30 8 5 11 10 5 10 -5 0 -2 5 8 11 22 13 38 2 17
-11 -20 -13 -3 -12 21 0 19 11 24 35 13 64 -3 9 -10 13 -15 10 -5 -3 -9 0 -9
7 0 8 -5 7 -17 -2 -11 -10 -14 -10 -9 -1 4 7 2 12 -7 12 -24 0 -30 30 -7 31
35 2 39 4 52 17 9 9 9 12 0 12 -7 0 -12 -4 -12 -8 0 -10 -36 -9 -46 1 -4 4
-13 2 -20 -4 -9 -7 -21 -6 -41 5 l-28 15 30 -2 c21 -1 30 3 30 13 0 8 4 18 9
21 5 4 0 10 -11 13 -15 5 -19 13 -16 31 3 15 10 22 19 18 7 -2 25 7 39 21 23
23 63 27 49 5z m1796 -44 c63 -3 186 -6 273 -7 87 -1 160 -5 162 -9 5 -7 142
-14 228 -12 31 1 57 -2 57 -6 0 -14 -42 -21 -95 -16 -102 10 -278 17 -587 22
-311 5 -318 5 -318 25 0 20 4 20 83 14 45 -4 134 -9 197 -11z m-1852 -359 c4
1 17 -2 30 -7 42 -16 76 -18 91 -6 10 8 12 8 8 1 -9 -16 35 -27 45 -11 4 7 8
8 8 2 0 -5 15 -10 34 -10 19 0 32 4 28 9 -3 5 5 6 19 2 73 -21 240 -37 384
-36 196 0 197 1 212 12 8 6 15 3 23 -11 6 -12 8 -21 4 -21 -3 0 -1 -7 6 -15
10 -12 16 -13 27 -4 7 7 16 9 20 5 3 -3 2 -6 -3 -6 -5 0 -10 -9 -10 -19 0 -16
4 -17 18 -10 10 5 18 13 18 17 0 11 60 45 67 38 3 -3 11 2 18 10 11 15 12 15
12 0 0 -9 -4 -16 -9 -16 -5 0 -6 -4 -3 -10 3 -5 0 -7 -8 -4 -9 3 -24 -6 -36
-22 -11 -15 -21 -23 -21 -19 0 5 -8 1 -17 -7 -10 -9 -42 -26 -71 -38 -40 -17
-56 -20 -65 -11 -6 6 -16 11 -22 11 -5 0 -4 -4 3 -9 10 -6 7 -10 -12 -15 -14
-3 -26 -11 -26 -16 0 -13 -56 -13 -80 0 -16 8 -18 8 -14 -5 4 -10 0 -15 -10
-15 -9 0 -16 7 -16 15 0 8 -7 15 -16 15 -8 0 -13 -4 -10 -9 3 -4 -13 -5 -37 0
-23 4 -47 4 -54 1 -17 -10 -119 -2 -103 8 9 5 5 8 -11 9 -42 1 -75 7 -90 16
-12 7 -12 6 -1 -7 9 -11 10 -18 2 -23 -5 -3 -10 -2 -10 4 0 6 -7 8 -16 4 -10
-4 -20 0 -26 10 -4 9 -15 14 -23 11 -9 -4 -15 0 -15 9 0 9 -4 19 -10 22 -6 4
-7 -1 -3 -12 6 -16 5 -16 -10 -4 -17 13 -16 15 4 38 13 12 18 23 13 23 -12 0
-42 -20 -30 -20 5 0 3 -7 -4 -15 -11 -13 -18 -11 -56 11 -24 14 -49 22 -55 18
-7 -4 -9 -3 -5 4 3 6 -2 15 -11 21 -16 9 -16 12 -3 21 11 8 8 9 -12 4 -16 -3
-28 -2 -28 3 0 5 -9 9 -20 9 -11 0 -20 -6 -20 -14 0 -7 -4 -10 -10 -7 -5 3
-19 1 -30 -5 -18 -9 -20 -8 -20 15 0 14 3 24 8 24 21 -4 22 3 2 19 -21 17 -21
18 -2 18 11 0 18 -4 16 -8 -3 -4 2 -8 10 -8 13 0 14 5 6 28 -10 26 -9 26 5 7
9 -11 19 -19 23 -19z m92 -419 c27 -1 44 2 43 8 -1 6 12 12 30 13 17 2 28 0
24 -4 -4 -4 -2 -13 5 -21 9 -11 7 -12 -8 -7 -10 4 -16 4 -12 0 9 -11 89 -16
83 -6 -7 11 21 21 43 14 14 -5 14 -3 -2 10 -16 13 -17 16 -4 16 9 0 18 -6 21
-14 6 -15 93 -16 117 -1 9 5 11 4 6 -3 -5 -9 7 -12 41 -12 27 0 55 -6 62 -12
11 -10 13 -10 7 0 -4 6 -2 12 3 12 6 0 11 -4 11 -9 0 -9 21 -5 75 14 16 6 17
5 5 -4 -12 -9 -5 -11 32 -8 26 2 45 0 43 -3 -3 -4 16 -5 40 -2 42 4 60 -7 35
-23 -5 -3 -10 -12 -10 -18 0 -7 4 -6 10 3 5 8 10 11 10 5 0 -5 7 -2 14 8 14
18 15 17 21 -2 3 -12 10 -19 14 -17 4 3 8 -2 8 -10 0 -9 -4 -11 -10 -5 -17 17
-38 1 -27 -20 9 -16 6 -20 -17 -25 -43 -10 -48 -16 -28 -31 11 -7 14 -13 7
-13 -6 0 -20 9 -31 21 -14 15 -21 17 -26 8 -5 -8 -4 -10 3 -5 17 10 15 1 -4
-14 -8 -8 -14 -9 -13 -4 5 15 -12 54 -22 54 -5 0 -9 -4 -9 -10 0 -5 5 -10 10
-10 6 0 10 -5 10 -10 0 -6 -12 -8 -27 -4 -20 4 -24 3 -14 -4 7 -5 10 -15 7
-21 -5 -7 1 -10 15 -8 12 1 24 -4 26 -13 4 -13 3 -13 -6 0 -7 10 -11 11 -11 3
0 -18 -17 -16 -38 5 -18 18 -48 22 -70 8 -7 -4 -21 -4 -32 -1 -11 4 -20 2 -20
-4 0 -6 6 -11 13 -11 11 -1 -48 -30 -60 -30 -3 0 -3 6 0 14 3 8 1 17 -6 20 -7
4 -1 4 12 2 17 -3 21 -2 13 6 -13 13 -72 1 -72 -15 0 -8 -3 -9 -8 -1 -9 13
-75 12 -84 -1 -4 -6 -8 -2 -8 9 0 12 5 16 15 13 14 -6 32 9 22 19 -10 10 -39
-10 -49 -35 -6 -15 -12 -21 -15 -13 -3 6 -11 12 -19 12 -8 0 -13 4 -11 9 1 5
-1 9 -5 10 -23 3 -28 0 -22 -11 6 -10 4 -10 -7 0 -19 17 -29 15 -22 -5 5 -15
3 -15 -10 2 -8 10 -13 25 -10 32 3 9 0 11 -10 8 -10 -4 -17 2 -21 19 -6 24 -7
24 -34 10 -33 -17 -53 -18 -32 -1 35 28 17 43 -45 37 -19 -1 -18 0 3 15 18 13
21 20 11 31 -6 8 -8 14 -4 14 5 0 5 3 2 7 -4 3 -17 -2 -29 -13 -19 -16 -21
-16 -9 -1 11 14 11 21 3 29 -7 7 -12 16 -12 22 0 5 6 2 13 -8 9 -12 28 -18 57
-19z m-1024 -4 c-3 -6 0 -14 7 -16 9 -3 9 -9 0 -26 -18 -29 -17 -31 12 -31 14
0 25 5 25 10 0 6 8 10 17 10 13 0 14 3 5 12 -21 21 -13 25 38 18 28 -4 53 -3
56 2 7 11 34 10 34 -2 0 -5 -5 -10 -11 -10 -6 0 -17 -7 -25 -15 -9 -8 -31 -15
-50 -15 -19 0 -52 -8 -73 -18 -37 -18 -55 -20 -138 -12 -32 3 -29 4 21 9 33 3
61 11 63 18 5 14 -53 15 -78 2 -9 -5 -20 -5 -23 -1 -4 4 -36 5 -72 3 -41 -2
-64 1 -64 8 0 6 -9 10 -19 8 -11 -1 -20 2 -20 7 1 9 -21 26 -34 26 -5 0 -5 -5
-1 -12 4 -7 3 -8 -5 -4 -17 11 -2 29 18 20 26 -11 142 -14 136 -4 -4 6 5 6 21
0 15 -6 33 -9 41 -6 7 3 13 0 14 -7 0 -9 2 -9 6 1 2 6 13 12 23 12 31 0 54 12
39 20 -7 5 -1 7 15 7 16 -1 24 -7 22 -14z"></path>
<path d="M0 4400 c0 -7 89 -10 268 -10 147 0 386 -5 532 -11 315 -13 552 -13
600 0 24 6 -51 9 -230 9 -146 1 -335 5 -420 10 -219 14 -750 16 -750 2z"></path>
<path d="M0 3822 c0 -4 17 -15 38 -25 l37 -17 -37 3 c-21 2 -38 -1 -38 -5 0
-13 244 -10 258 4 9 9 13 7 18 -5 5 -15 32 -16 242 -16 160 1 239 5 244 12 4
7 98 12 289 14 255 2 329 5 266 11 -62 5 -638 3 -656 -3 -11 -3 -29 -1 -41 5
-13 7 -20 7 -20 1 0 -7 -24 -9 -62 -6 -35 2 -108 4 -163 5 -55 0 -136 4 -180
9 -48 5 -87 4 -98 -1 -13 -7 -24 -5 -36 6 -18 16 -61 22 -61 8z"></path>
<path d="M3920 3758 c14 -5 62 -12 108 -15 45 -3 80 -8 77 -11 -3 -3 -47 -6
-98 -5 -191 2 12 -15 328 -26 237 -9 347 -9 465 0 85 6 165 11 178 11 17 -2
22 4 22 24 l0 25 -307 -6 c-425 -7 -495 -7 -598 5 -49 5 -115 9 -145 9 -48 0
-52 -2 -30 -11z"></path>
<path d="M0 3670 c0 -18 9 -19 188 -22 235 -3 665 1 671 7 2 3 2 7 0 9 -2 2
-148 7 -324 10 -176 3 -368 8 -427 11 -102 5 -108 4 -108 -15z"></path>
<path d="M33 3303 c-27 -5 -35 -24 -17 -41 10 -9 14 -9 14 -1 0 8 5 8 16 -2
12 -10 17 -10 23 0 6 9 19 9 56 1 26 -6 64 -11 84 -11 20 -1 56 -8 81 -16 35
-12 97 -16 290 -15 135 0 277 4 315 10 57 7 14 10 -222 11 -161 0 -323 6 -360
11 -38 6 -89 13 -114 15 -38 5 -46 9 -43 23 4 14 -3 17 -48 18 -29 0 -63 -1
-75 -3z"></path>
<path d="M4772 2710 c-12 -5 -28 -7 -36 -4 -8 3 -17 1 -21 -5 -3 -6 1 -14 10
-17 13 -6 14 -8 3 -15 -9 -6 -6 -9 10 -9 13 0 21 -4 17 -9 -8 -14 28 -23 74
-17 23 3 41 1 41 -5 0 -11 76 -2 108 14 17 8 22 18 20 36 -3 23 -8 26 -44 27
-23 1 -68 4 -100 7 -33 3 -69 2 -82 -3z"></path>
<path d="M0 2568 c0 -25 3 -28 35 -28 19 0 35 -3 35 -7 0 -5 24 -9 52 -9 29
-1 100 -5 158 -10 205 -17 540 -7 540 16 0 4 -48 8 -107 9 -178 3 -330 14
-488 36 -55 8 -128 16 -162 18 l-63 3 0 -28z"></path>
<path d="M67 2323 l-67 -4 0 -79 0 -79 57 -5 c32 -4 70 -10 84 -15 15 -4 60
-5 100 -1 57 6 79 4 97 -7 14 -9 31 -11 45 -7 12 4 74 8 137 9 63 1 158 3 210
4 l95 4 -150 12 c-82 7 -214 14 -292 14 -129 1 -171 9 -143 26 5 3 10 3 10 -2
0 -4 22 -8 49 -8 27 0 47 3 44 8 -2 4 3 7 11 7 8 0 18 -4 21 -10 8 -13 65 -13
65 -1 0 11 126 8 153 -4 10 -4 39 -4 65 -1 26 4 60 9 75 11 36 4 46 13 27 25
-11 7 -8 10 15 11 17 0 49 1 72 2 22 1 39 -1 36 -5 -2 -5 3 -8 12 -8 9 0 13 5
10 10 -3 6 4 10 16 10 17 0 19 -3 10 -14 -10 -11 -7 -14 14 -12 14 0 25 3 25
6 0 12 81 4 90 -10 10 -15 4 -30 -11 -30 -6 0 -8 4 -5 8 3 5 -1 9 -9 9 -8 0
-15 -5 -15 -10 0 -5 -12 -6 -27 -3 -21 5 -24 4 -13 -3 22 -15 82 -11 103 7 11
10 21 12 25 7 11 -15 52 -17 49 -2 -1 6 6 11 15 11 10 -1 15 2 12 7 -3 5 -11
9 -19 9 -7 0 -15 7 -19 15 -3 8 -10 15 -16 15 -6 0 -4 -7 4 -16 24 -24 19 -36
-8 -19 -13 8 -31 13 -40 9 -9 -3 -16 -1 -16 5 0 6 7 11 16 11 8 0 12 5 8 11
-3 6 -24 9 -46 7 -34 -3 -39 -1 -35 14 4 14 -1 18 -21 18 -15 0 -38 3 -51 7
-21 5 -23 3 -19 -15 4 -16 2 -22 -9 -22 -9 0 -13 6 -9 15 4 12 -4 15 -44 15
-27 0 -52 -5 -55 -10 -8 -13 -42 -9 -72 8 -17 9 -23 10 -23 1 0 -8 -4 -8 -15
1 -9 7 -40 11 -82 9 -37 -1 -76 1 -86 6 -9 4 -26 5 -37 2 -11 -3 -20 -1 -20 3
0 4 -46 6 -101 4 -67 -3 -106 0 -115 7 -10 8 -14 8 -14 0 0 -6 -14 -11 -31
-11 -17 0 -28 4 -24 10 4 6 -5 9 -22 8 -15 -1 -58 -3 -96 -5z"></path>
<path d="M4485 2219 c-79 -5 -83 -6 -35 -9 139 -9 132 -8 125 -20 -3 -5 1 -10
10 -10 9 0 13 5 10 10 -4 7 14 10 54 8 33 -1 57 -6 54 -11 -3 -5 -19 -6 -36
-3 -19 4 -28 3 -22 -3 8 -7 95 -18 175 -21 12 -1 12 -3 -3 -14 -16 -12 -15
-14 14 -20 47 -9 109 -7 109 3 0 5 -8 12 -17 14 -14 4 -13 5 4 6 12 0 24 -5
27 -11 5 -10 7 -10 12 0 3 6 12 12 20 12 19 0 18 37 -1 56 -12 13 -39 14 -167
9 -84 -4 -173 -3 -198 2 -25 4 -85 5 -135 2z"></path>
<path d="M2 1899 c2 -15 9 -23 18 -20 8 2 24 3 35 2 11 -1 43 -2 71 -4 28 -1
57 -7 65 -13 8 -6 44 -10 84 -8 43 1 72 -2 77 -9 5 -8 11 -7 21 1 8 7 30 13
48 13 19 1 59 3 89 6 l54 5 -34 14 c-23 10 -87 16 -200 19 -91 2 -203 7 -248
11 l-84 6 4 -23z"></path>
<path d="M4480 1791 c21 -6 15 -9 -30 -15 -105 -13 -176 -17 -155 -7 15 7 8
10 -32 10 -54 1 -71 -12 -30 -22 19 -5 89 -12 217 -22 19 -1 97 -3 173 -4 113
-1 137 -4 137 -16 0 -8 -9 -19 -20 -25 -11 -6 -20 -7 -20 -2 0 10 -81 24 -89
16 -3 -2 4 -11 15 -19 16 -12 17 -14 3 -15 -9 0 -31 -6 -48 -13 -27 -12 -19
-13 83 -12 62 1 117 5 123 8 5 3 29 6 54 7 93 1 100 3 95 16 -6 16 19 38 34
29 6 -4 10 4 10 18 0 22 -5 25 -52 31 -50 6 -105 7 -223 3 -87 -2 -199 13
-211 28 -6 8 -22 15 -35 14 l-24 -1 25 -7z"></path>
<path d="M3307 1270 c3 -11 12 -20 20 -20 7 0 22 -13 31 -29 9 -17 25 -32 34
-34 10 -3 22 -16 27 -29 5 -12 28 -41 50 -63 23 -22 41 -48 41 -61 0 -12 7
-27 16 -35 12 -10 14 -23 9 -60 -4 -29 -2 -61 5 -81 11 -29 10 -38 -7 -68 -16
-29 -26 -36 -56 -38 -29 -3 -37 -7 -37 -23 0 -10 5 -19 10 -19 6 0 10 -7 10
-15 0 -14 6 -16 50 -19 8 -1 16 -11 18 -23 4 -26 -12 -29 -67 -13 -47 13 -29
-1 27 -23 26 -9 35 -15 20 -12 -14 3 -33 8 -42 11 -9 3 -16 1 -16 -5 0 -6 6
-11 13 -11 22 0 78 -31 72 -40 -3 -5 -21 -7 -40 -6 -30 3 -33 1 -25 -15 13
-23 13 -32 0 -24 -6 3 -7 -1 -4 -9 4 -11 19 -16 44 -16 32 0 39 4 44 25 4 14
10 24 14 21 4 -2 9 5 9 17 2 17 0 19 -7 7 -7 -10 -10 9 -10 59 0 64 2 72 15
61 16 -13 21 0 6 16 -6 5 -13 30 -16 57 -6 42 -5 46 11 40 11 -4 15 -3 11 4
-4 6 -2 13 4 15 6 2 2 14 -10 27 -23 27 -28 46 -8 35 8 -5 8 -3 -2 9 -9 11
-11 29 -7 51 5 24 2 37 -9 46 -18 15 -21 44 -2 34 6 -4 2 3 -10 15 -13 12 -23
33 -23 46 0 13 -5 27 -11 31 -6 4 -7 9 -2 13 5 3 4 16 -4 31 -7 14 -13 18 -13
10 0 -8 -7 -2 -15 14 -8 15 -13 31 -11 35 2 3 -7 12 -21 18 -21 10 -24 10 -19
-4 6 -13 4 -14 -9 -3 -15 12 -14 15 5 25 22 12 22 12 -7 23 -15 6 -47 13 -70
16 -37 5 -41 4 -36 -14z"></path>
<path d="M1038 392 c-10 -2 -19 -11 -20 -20 0 -9 -2 -21 -3 -27 -2 -5 -3 -19
-4 -30 -2 -19 -2 -19 -20 2 -15 18 -20 20 -25 8 -3 -8 -1 -15 4 -15 6 0 10
-12 10 -26 0 -14 4 -23 10 -19 5 3 7 12 4 20 -4 10 0 13 13 11 15 -3 19 2 18
22 -1 15 3 33 8 40 11 15 37 16 37 1 0 -5 -4 -7 -10 -4 -6 3 -7 -1 -4 -9 3 -9
10 -16 14 -16 15 0 6 -50 -10 -61 -12 -8 -12 -9 4 -7 14 2 19 -4 22 -25 1 -17
-1 -25 -8 -21 -6 4 -5 -2 1 -15 8 -14 10 -53 7 -111 -3 -50 -4 -90 -2 -90 1 0
18 5 37 12 l34 12 -30 6 c-23 4 -29 10 -27 25 2 11 8 22 12 25 4 3 7 25 7 48
-1 24 3 48 10 53 6 6 33 10 60 9 26 0 57 -1 68 0 11 0 34 0 50 0 27 0 30 3 29
27 -1 16 -3 40 -3 55 -1 21 -9 30 -33 41 -18 8 -46 20 -63 28 -16 7 -41 13
-55 14 -31 1 -113 25 -120 34 -3 4 -13 5 -22 3z"></path>
<path d="M3120 317 c0 -21 -5 -27 -22 -28 -22 -1 -22 -1 2 -9 21 -7 19 -8 -17
-9 -24 -1 -43 -5 -43 -11 0 -5 7 -7 15 -4 8 4 15 1 15 -5 0 -6 -6 -11 -14 -11
-10 0 -13 -9 -9 -34 2 -19 0 -37 -5 -40 -14 -9 -2 -46 14 -46 8 0 17 -7 21
-16 5 -13 7 -13 14 -2 7 10 9 8 9 -6 0 -15 3 -16 15 -6 22 18 57 3 53 -23 -4
-27 -58 -34 -58 -8 0 10 -3 12 -8 5 -9 -13 -43 -15 -58 -2 -6 4 -20 5 -30 1
-23 -9 62 -29 161 -38 l70 -6 -23 20 -23 20 21 21 c11 11 20 24 20 30 0 5 5
10 10 10 6 0 10 -8 10 -17 0 -15 2 -16 10 -3 8 13 10 12 10 -2 0 -10 5 -18 11
-18 7 0 18 -8 26 -17 14 -17 14 -17 9 0 -3 11 0 20 9 23 19 8 19 30 0 38 -8 3
-15 10 -15 17 0 6 6 9 13 6 22 -8 38 7 42 42 2 18 0 29 -5 26 -13 -8 -13 1 -1
24 8 13 4 22 -15 36 -14 11 -35 20 -47 22 -12 2 -26 8 -31 13 -6 6 -33 10 -62
10 -33 0 -54 5 -57 13 -3 6 -6 0 -6 -15 -1 -35 -16 -44 -19 -11 -3 36 -12 43
-12 10z"></path>
</g>
</svg><style>@media (prefers-color-scheme: light) { :root { filter: none; } }
</style></svg>